<svg width="312" height="168" viewBox="0 0 312 168" fill="none" xmlns="http://www.w3.org/2000/svg">
<path d="M0 1.32806H312" stroke="#F2F2F2"/>
<path d="M0 13.1386H312" stroke="#F2F2F2"/>
<path d="M0 24.9482H312" stroke="#F2F2F2"/>
<path d="M0 36.7589H312" stroke="#F2F2F2"/>
<path d="M0 48.5692H312" stroke="#F2F2F2"/>
<path d="M0 60.3798H312" stroke="#F2F2F2"/>
<path d="M0 72.1894H312" stroke="#F2F2F2"/>
<path d="M0 84H312" stroke="#F2F2F2"/>
<path d="M0 95.8103H312" stroke="#F2F2F2"/>
<path d="M0 107.621H312" stroke="#F2F2F2"/>
<path d="M0 119.431H312" stroke="#F2F2F2"/>
<path d="M0 131.241H312" stroke="#F2F2F2"/>
<path d="M0 143.052H312" stroke="#F2F2F2"/>
<path d="M0 154.861H312" stroke="#F2F2F2"/>
<path d="M0 166.672H312" stroke="#F2F2F2"/>
<rect y="1.65613" width="8" height="165.344" rx="4" fill="#E6EEF5"/>
<rect y="107.293" width="8" height="59.7075" rx="4" fill="#E1CCFB"/>
<rect x="26" y="1.65613" width="8" height="165.344" rx="4" fill="#E6EEF5"/>
<rect x="26" y="95.4822" width="8" height="71.5178" rx="4" fill="#E1CCFB"/>
<rect x="51" y="1.65613" width="8" height="165.344" rx="4" fill="#E6EEF5"/>
<rect x="51" y="89.5771" width="8" height="77.4229" rx="4" fill="#E1CCFB"/>
<rect x="79" y="1.65613" width="8" height="165.344" rx="4" fill="#E6EEF5"/>
<rect x="79" y="84.3281" width="8" height="82.6719" rx="4" fill="#E1CCFB"/>
<rect x="105" y="1.65613" width="8" height="165.344" rx="4" fill="#E6EEF5"/>
<rect x="105" y="78.4229" width="8" height="88.5771" rx="4" fill="#E1CCFB"/>
<rect x="131" y="1.65613" width="8" height="165.344" rx="4" fill="#E6EEF5"/>
<rect x="131" y="72.5178" width="8" height="94.4822" rx="4" fill="#E1CCFB"/>
<rect x="158" y="1.65613" width="8" height="165.344" rx="4" fill="#E6EEF5"/>
<rect x="158" y="67.2688" width="8" height="99.7312" rx="4" fill="#E1CCFB"/>
<rect x="184" y="1.65613" width="8" height="165.344" rx="4" fill="#E6EEF5"/>
<rect x="210" y="1.65613" width="8" height="165.344" rx="4" fill="#E6EEF5"/>
<rect x="241" y="1.65613" width="8" height="165.344" rx="4" fill="#E6EEF5"/>
<rect x="272" y="1.65613" width="8" height="165.344" rx="4" fill="#E6EEF5"/>
<rect x="301" y="1.65613" width="8" height="165.344" rx="4" fill="#E6EEF5"/>
</svg>
