<svg width="366" height="100" viewBox="0 0 366 100" fill="none" xmlns="http://www.w3.org/2000/svg">
<path fill-rule="evenodd" clip-rule="evenodd" d="M1 99.1494L1 47.7151C1 47.7151 21.2524 71.1762 24.7391 70.4726C43.5549 66.6761 65.9872 43.2847 76.5036 43.2847C87.02 43.2847 121.014 62.7503 135.961 62.7503C150.908 62.7503 179.483 7.80155 190.913 7.80155C202.343 7.80155 224.042 47.7151 234.608 47.7151C245.174 47.7151 277.957 31.9562 288.507 31.9562C299.058 31.9562 326.314 43.2847 336.865 43.2847C340.656 43.2847 365 35.7617 365 35.7617V99.1494H1Z" fill="url(#paint0_linear_1_73)"/>
<path d="M1 46.8389C1 46.8389 17.2674 69.6228 26.4976 69.6228C35.7278 69.6228 65.9872 42.4032 76.5036 42.4032C87.02 42.4032 121.014 61.8915 135.961 61.8915C150.908 61.8915 179.483 6.87884 190.913 6.87884C202.343 6.87884 224.042 46.8389 234.608 46.8389C245.174 46.8389 277.957 31.0616 288.507 31.0616C299.058 31.0616 326.314 42.4032 336.865 42.4032C347.415 42.4032 365 34.8715 365 34.8715" stroke="#CBA7EE" stroke-width="2"/>
<rect opacity="0.296012" x="183.879" width="14.0676" height="99.6522" rx="7.03382" fill="#E4C9FE"/>
<path d="M195.947 7.38164C195.947 10.4459 193.603 12.7633 190.913 12.7633C188.223 12.7633 185.879 10.4459 185.879 7.38164C185.879 4.31738 188.223 2 190.913 2C193.603 2 195.947 4.31738 195.947 7.38164Z" fill="#E4C9FE" stroke="white" stroke-width="4"/>
<defs>
<linearGradient id="paint0_linear_1_73" x1="4.66406" y1="7.80155" x2="4.66406" y2="97.3103" gradientUnits="userSpaceOnUse">
<stop stop-color="#E4C9FE"/>
<stop offset="1" stop-color="white" stop-opacity="0.01"/>
</linearGradient>
</defs>
</svg>
